<?xml version="1.0" encoding="utf-8"?>
<!-- Generator: Adobe Illustrator 19.0.1, SVG Export Plug-In . SVG Version: 6.00 Build 0)  -->
<svg version="1.1" id="diamonds" xmlns="http://www.w3.org/2000/svg" xmlns:xlink="http://www.w3.org/1999/xlink" x="0px" y="0px"
	 viewBox="0 0 128 128" style="enable-background:new 0 0 128 128;" xml:space="preserve">
<style type="text/css">
	.st0{display:none;}
	.st1{display:inline;fill:#919191;}
	.st2{display:inline;fill:#212330;}
	.st3{fill:#919191;}
	.st4{fill:#212330;}
</style>
<g id="diamond:8" class="st0">
	<ellipse id="Shape_30_" class="st1" cx="64" cy="63.8" rx="41.6" ry="61.3"/>
	<path id="Shape_29_" class="st1" d="M64.8,5.6l9.6,23.4L64,36.4l-8.1-4.9L64.8,5.6z M74.4,96.9L66.2,92l-10.3,7.4l9.6,23.4
		L74.4,96.9z M95.1,24.9l-7,26.4l-8.5-5.5l-4.4-14.3L95.1,24.9z M55.9,99.3l-4.2-14.3l-8.9-2.8l-6.7,24.4L55.9,99.3z M93.4,104.3
		l-18.2-5.4l4.1-14.7l11.1-5.2L93.4,104.3z M41.4,50.2l11.7-7.1l1.7-13.5l-18.9-5.5L41.4,50.2z M105.6,65.1L90.4,76.5l-5.2-13.2
		l3.2-11L105.6,65.1z M41.4,80.1l4.8-13.8l-4.8-15L25.3,64.1L41.4,80.1z"/>
	<polygon id="Shape_28_" class="st1" points="78.1,86 64.7,93.1 51.7,85.1 46.5,65 53.1,43.1 64,38.1 79.6,45.8 85.2,63.3 	"/>
	<path id="Shape_27_" class="st2" d="M97.7,23.5c6.2,11,10,25,10,40.3c0,34.5-19.1,62.6-42.7,63.4l-0.4,0.8l-0.3-0.8
		c-0.1,0-0.2,0-0.3,0c-24.1,0-43.7-28.4-43.7-63.4S39.9,0.4,64,0.4c0.2,0,0.4,0,0.6,0L64.8,0l0.2,0.4C77.7,0.8,89.2,9.2,97,22.3
		L97.7,23.5z M36.9,106.8c6.8,9.6,15.8,15.6,25.7,16.1l-8.4-20.7L36.9,106.8z M76.6,102.7l-9.5,20.1c9.5-1.1,18.1-7.3,24.5-16.7
		L76.6,102.7z M57.8,100.1l7.1,17.4l8.2-17.5l-7.9-4.6L57.8,100.1z M24.5,66.3c0.4,14.2,4.2,27.2,10.1,37.1l4.4-22.6L24.5,66.3z
		 M43.1,82.5l-3.8,19.4l14.1-3.7l-3.5-11.7L43.1,82.5z M76.7,98.4l14.3,3.2l-2.4-20.7L80.3,86L76.7,98.4z M92.6,79.7l2.4,20.7
		c4.8-9.1,7.8-20.3,8.3-32.4L92.6,79.7z M55.2,89.6l1.8,6.1l4.2-2.6L55.2,89.6z M69.3,92.9l3.9,2.3l1.7-5.8L69.3,92.9z M53.5,83.7
		l11.7,6.9l11.5-7.2L82.7,63l-4.9-15.8L64,38.9l-9.7,5.9l-6,21.5L53.5,83.7z M44.9,78.6l3.3,1.9l-2-6.6L44.9,78.6z M84.9,70.3
		L82.1,80l4.9-3L84.9,70.3z M28.4,64.2L41,76.8l2.9-10.5l-3.7-12.4L28.4,64.2z M87.1,63l3.8,12.3l10.1-11l-11.6-9.3L87.1,63z
		 M34,25.3C28.3,35.2,24.8,48,24.5,62L39,49.5l-0.1-0.3l0.1-0.1L34,25.3z M90.7,50.7l12.8,10.2c-0.4-11.7-3-22.6-7.3-31.5L90.6,50
		l0.2,0.1L90.7,50.7z M43.9,51.2l2.2,7.5l3-10.7L43.9,51.2z M83.2,50.5l1.6,5.2l1-3.5l-0.1-0.1l0-0.1L83.2,50.5z M81.4,44.4l5.5,3.3
		l5.3-19.9l-14.8,3.6L81.4,44.4z M38.7,27.1l4.1,19.7l7.9-4.8l2.9-10.3L38.7,27.1z M68.1,36.4l7.9,4.8l-2.5-8L68.1,36.4z M57.2,34.7
		L56,38.8l3.9-2.4L57.2,34.7z M57.3,29.9l6.7,4l8.1-4.9l-7.3-17.8L57.3,29.9z M75.9,26.7l0.2,0.7l16.7-4.1
		C86.2,12.7,77,5.8,66.7,4.7l0,0.1l9,22L75.9,26.7z M36.1,21.9l17.7,5.4l9.1-22.7C52.5,5,43,11.6,36.1,21.9z"/>
</g>
<g id="diamond:7" class="st0">
	<rect id="Shape_26_" x="2.6" y="2.6" class="st1" width="122.9" height="122.9"/>
	<rect id="Shape_25_" x="29.4" y="29.4" class="st1" width="69.1" height="69.1"/>
	<path id="Shape_23_" class="st2" d="M128,128H0V0h128V128z M8.7,122.9h110.5l-21.8-21.8h-67L8.7,122.9z M101.1,97.5l21.8,21.8V8.7
		l-21.8,21.8V97.5z M5.1,8.7v110.5l21.8-21.8v-67L5.1,8.7z M32,96h64V32H32V96z M30.5,26.9h67l21.8-21.8H8.7L30.5,26.9z"/>
</g>
<g id="diamond:6" class="st0">
	<polygon id="Shape_22_" class="st1" points="107.1,101.6 20.9,101.6 1.9,80.7 1.9,47.3 20.9,26.4 107.1,26.4 126.1,47.3 
		126.1,80.7 	"/>
	<polygon id="Shape_21_" class="st1" points="102.2,90.4 25.8,90.4 14.1,75.9 14.1,64.3 14.1,52.7 25.8,38.2 102.2,38.2 113.9,52.7 
		113.9,75.9 	"/>
	<polygon id="Shape_20_" class="st1" points="95.7,79.4 32,79.4 25.2,70.9 25.2,64.1 25.2,57.2 32,48.7 95.7,48.7 102.5,57.2 
		102.5,70.9 	"/>
	<path id="Shape_19_" class="st2" d="M108,103.4H20l-20-22V46.6l20-22H108l20,22v34.8L108,103.4z M24.1,99.7h81l-4.2-7.4H28.3
		L24.1,99.7z M5,81.4l15.5,17l4.5-7.9L13.6,77.9L5,81.4z M103.6,89.8l4.5,7.9l15-16.4l-8.6-3.4L103.6,89.8z M30.4,88.6h68.3
		l-3.8-6.5H33.3l-2.2,5.3L30.4,88.6z M17.2,76.5l9.7,10.7l0.9-1.6l2.1-5.1l-5.3-7L17.2,76.5z M98.2,80.4l3.5,6.1l9.1-10.1l-7.4-2.9
		L98.2,80.4z M33,78.4h62l5.9-7.8V57.4L95,49.6H34.1l-1.7,0.8l-5.3,7v13.2L33,78.4z M3.7,50.1v27.8l8.5-3.5V53.7L3.7,50.1z
		 M115.8,74.4l8.5,3.4V50.3l-8.5,3.4V74.4z M16,55.3V73l7.4-3V58.5L16,55.3z M104.6,70l7.4,2.9V55.1l-7.4,2.9V70z M17.1,51.7
		l7.3,3.1l5.8-7.6l-2.3-4.9l-0.9-1.5L17.1,51.7z M98.3,47.8l5.1,6.8l7.4-2.9l-9.1-10.1l-0.5,0.9L98.3,47.8z M5,46.6l8.5,3.6L25,37.4
		l-4.5-7.9L5,46.6z M103.7,38.2l10.8,12l8.6-3.4l-15-16.4L103.7,38.2z M33.6,45.9h61.5l3.6-6.5H30.4l0.7,1.2L33.6,45.9z M28.3,35.7
		h72.5l4.2-7.4h-81L28.3,35.7z"/>
</g>
<g id="diamond:5">
	<circle id="Shape_18_" class="st3" cx="64" cy="64" r="61.8"/>
	<rect id="Shape_17_" x="21" y="21" class="st3" width="86" height="86"/>
	
		<rect id="Shape_16_" x="21" y="21" transform="matrix(0.7071 0.7071 -0.7071 0.7071 63.9997 -26.5099)" class="st3" width="86" height="86"/>
	
		<rect id="Shape_15_" x="41.3" y="41.3" transform="matrix(-0.7071 0.7071 -0.7071 -0.7071 154.5094 63.9991)" class="st3" width="45.5" height="45.5"/>
	<path id="Shape_14_" class="st4" d="M64,128C28.7,128,0,99.3,0,64S28.7,0,64,0s64,28.7,64,64S99.3,128,64,128z M82.7,109.2
		l-14.2,14.2c13-1,24.9-6.2,34.2-14.2H82.7z M25.2,109.2c9.4,8,21.2,13.2,34.2,14.2l-14.2-14.2H25.2z M51.5,109.2L64,121.7
		l12.5-12.5H51.5z M87.1,104.8h17.7V87.1L87.1,104.8z M47.1,104.8h33.8l23.9-23.9V47.1L80.9,23.2H47.1L23.2,47.1v33.8L47.1,104.8z
		 M23.2,104.8h17.7L23.2,87.1V104.8z M109.2,82.7v20c8-9.4,13.2-21.2,14.2-34.2L109.2,82.7z M4.6,68.5c1,13,6.2,24.9,14.2,34.2v-20
		L4.6,68.5z M109.2,51.5v25L121.7,64L109.2,51.5z M6.3,64l12.5,12.5v-25L6.3,64z M109.2,45.3l14.2,14.2c-1-13-6.2-24.9-14.2-34.2
		V45.3z M18.8,25.2c-8,9.4-13.2,21.2-14.2,34.2l14.2-14.2V25.2z M87.1,23.2l17.7,17.7V23.2H87.1z M23.2,23.2v17.7l17.7-17.7H23.2z
		 M82.7,18.8h20c-9.4-8-21.2-13.2-34.2-14.2L82.7,18.8z M51.5,18.8h25L64,6.3L51.5,18.8z M25.2,18.8h20L59.5,4.6
		C46.5,5.6,34.6,10.8,25.2,18.8z M64,99.3L28.7,64L64,28.7L99.3,64L64,99.3z M35,64l29,29l29-29L64,35L35,64z"/>
</g>
<g id="diamond:4" class="st0">
	<path id="Shape_13_" class="st1" d="M33,46.6H4.1L34.2,20H49L33,46.6z M96.3,46.6h28.9L95.2,20H80.3L96.3,46.6z"/>
	<polygon id="Shape_12_" class="st1" points="124.3,46.6 64,107.2 4,46.6 35.2,46.6 48.2,20 81.1,20 94.2,46.6 	"/>
	<path id="Shape_11_" class="st2" d="M64,110L0,46.5L33.4,18h61.7L128,46.5L64,110z M37.3,48.6l26.8,54.2l26.8-54.2H37.3z M7.8,48.6
		l49,48.7L32.8,48.6H7.8z M95.3,48.6L71.4,97l48.8-48.4H95.3z M95.3,44.6h24.4L93.6,22H82.8L95.3,44.6z M37.5,44.6h53.2L78.2,22
		H49.9L37.5,44.6z M8.4,44.6h24.5L45.4,22H34.9L8.4,44.6z"/>
</g>
<g id="diamond:3" class="st0">
	<polygon id="Shape_10_" class="st1" points="64,125.4 10.9,94.7 10.9,33.3 64,2.6 117.1,33.3 117.1,94.7 	"/>
	<polygon id="Shape_9_" class="st1" points="64,101.6 31.5,82.8 31.5,45.2 64,26.4 96.5,45.2 96.5,82.8 	"/>
	<path id="Shape_8_" class="st2" d="M64,128L8.6,96V32L64,0l55.4,32v64L64,128z M15.5,94.7l46.2,26.7v-18.5L31.5,85.4L15.5,94.7z
		 M66.3,102.9v18.5l46.7-27l-15.9-9.3L66.3,102.9z M33.8,81.5L64,98.9l30.2-17.5V46.5L64,29.1L33.8,46.5V81.5z M13.2,37.9v52.9
		l16-9.3V46.9L13.2,37.9z M98.8,80.8l16,9.4V37.2l-16,9V80.8z M14.9,33.6l16.2,9.1l30.6-17.6V6.6L14.9,33.6z M66.3,25.1l30,17.3
		l16.2-9.1L66.3,6.6V25.1z"/>
</g>
<g id="diamond:2" class="st0">
	<path id="Shape_7_" class="st1" d="M126.5,41c0.2,0.2,0.2,0.6-0.1,0.7L92.9,56.4c-0.7,0.3-1.5,0.5-2.4,0.5H38.1
		c-0.8,0-1.6-0.2-2.3-0.5L2.2,41.6c-0.3-0.1-0.3-0.5-0.1-0.7l18.8-16.4c0.5-0.4,2.5-1.6,2.5-1.6l17.3,10.2c0.7,0.3,1.5,0.4,2.3,0.4
		h41.5c0.8,0,1.5-0.1,2.2-0.4l19.6-9.3c0.2-0.1,0.3,0,0.5,0.1L126.5,41z"/>
	<path id="Shape_6_" class="st1" d="M63.9,114.5L3,45l32.7,11.8h57.8l31-11.9L63.9,114.5z M87.3,14.1H40.8l-16,9.6
		c0,0,16.9,11.6,39,11.6s39.9-5.4,39.9-11.8C103.7,21.6,87.3,14.1,87.3,14.1z"/>
	<path id="Shape_3_" class="st1" d="M64,110.1L35.5,57.8c-0.1-0.2,0-0.4,0.2-0.4h57.9c0.2,0,0.3,0.2,0.2,0.4l-29.5,52.4
		C64.3,110.3,64.1,110.3,64,110.1z"/>
	<path id="Shape_2_" class="st2" d="M88.6,12.6c-0.6-0.3-1.2-0.4-1.8-0.4H41.2c-0.6,0-1.2,0.1-1.8,0.4l-15.4,7.9c0,0,0,0,0,0
		l-22,15.8l-0.4,0.4c-2.4,3-2.2,7.4,0.3,10.3l59.6,67.9c0.6,0.7,1.5,1.1,2.4,1.1c0.9,0,1.8-0.4,2.4-1.1l59.6-68
		c2.4-2.8,2.7-6.9,0.6-9.9c-0.2-0.2-0.4-0.5-0.7-0.7L105,21.6L88.6,12.6z M26.9,23.3l14.3-7.2l45.5,0l14.4,7.4l0.6,0.3l-0.3,0.2
		l-14.5,8.2c-2.6,0.2-16.1,1.2-23.1,1.2c-7.2,0-19.9-1.5-21.3-1.7l-15.7-8.2l0,0L26.9,23.3z M43.2,35.7c3.9,0.5,14.2,1.6,20.6,1.6
		c6.2,0,17.1-0.7,21.7-1l5.9,19.1H37.9L43.2,35.7z M4.7,39.3l18.9-13.6c0.3,0.5,15.8,8.7,15.8,8.7l-5.6,20.9L4.1,40.6
		C4.2,40.2,4.4,39.7,4.7,39.3z M7,46.5l25.7,12.7c0.8,0.4,1.4,1,1.8,1.8l23.1,43.1L7,46.5z M63.9,107.5L38.1,59.4h53.2L63.9,107.5z
		 M70.5,104L94.9,61c0.4-0.7,1-1.3,1.8-1.7L120.5,47L70.5,104z M95.6,55.3l-6.2-20c0,0,15.1-8.7,15.4-9l18.6,13
		c0.3,0.4,0.5,0.9,0.5,1.4L95.6,55.3z"/>
</g>
<g id="diamond:1" class="st0">
	<polygon id="Shape_5_" class="st1" points="64,111.5 2.5,40.3 125.5,40.3 	"/>
	<polygon id="Shape_4_" class="st1" points="125.5,40.3 2.5,40.3 21.7,15.2 106.3,15.2 	"/>
	<path id="Shape" class="st2" d="M64,114.5L0,39.2l20.8-25.7h86.4L128,39.2L64,114.5z M46.4,41.1L64,104.4l17.6-63.2H46.4z
		 M85.6,41.1l-17.4,62.5l53.1-62.5H85.6z M6.7,41.1l53.1,62.5L42.4,41.1H6.7z M88.6,37.3h32.9l-15.3-18.9L88.6,37.3z M48.2,37.3
		h31.7L64.4,19.9L48.2,37.3z M6.5,37.3h32.9L21.8,18.4L6.5,37.3z M26.1,17.3l17.7,19l17.7-19H26.1z M67.3,17.3l16.9,19l17.7-19H67.3
		z"/>
</g>
</svg>
